<svg width="96" height="96" viewBox="0 0 24 24" fill="none" xmlns="http://www.w3.org/2000/svg" data-reactroot="">
<path stroke-linejoin="round" stroke-linecap="round" stroke-miterlimit="10" stroke-width="0" stroke="#293449" fill="#FF7373" d="M21 22H12V12H22V21C22 21.55 21.55 22 21 22Z" transform="translate(2,2)"></path><path stroke-linejoin="round" stroke-linecap="round" stroke-miterlimit="10" stroke-width="1" stroke="#293449" fill="none" d="M21 22H12V12H22V21C22 21.55 21.55 22 21 22Z"></path>
<path stroke-linejoin="round" stroke-linecap="round" stroke-miterlimit="10" stroke-width="0" stroke="#293449" fill="#FF7373" d="M12 22H3C2.45 22 2 21.55 2 21V12H12V22Z" transform="translate(2,2)"></path><path stroke-linejoin="round" stroke-linecap="round" stroke-miterlimit="10" stroke-width="1" stroke="#293449" fill="none" d="M12 22H3C2.45 22 2 21.55 2 21V12H12V22Z"></path>
<path stroke-linejoin="round" stroke-linecap="round" stroke-miterlimit="10" stroke-width="0" stroke="#293449" fill="#2249B3" d="M12 12H2V3C2 2.45 2.45 2 3 2H12V12Z" transform="translate(2,2)"></path><path stroke-linejoin="round" stroke-linecap="round" stroke-miterlimit="10" stroke-width="1" stroke="#293449" fill="none" d="M12 12H2V3C2 2.45 2.45 2 3 2H12V12Z"></path>
<path stroke-linejoin="round" stroke-linecap="round" stroke-miterlimit="10" stroke-width="0" stroke="#293449" fill="#2249B3" d="M22 12H12V2H21C21.55 2 22 2.45 22 3V12Z" transform="translate(2,2)"></path><path stroke-linejoin="round" stroke-linecap="round" stroke-miterlimit="10" stroke-width="1" stroke="#293449" fill="none" d="M22 12H12V2H21C21.55 2 22 2.45 22 3V12Z"></path>
<path stroke-miterlimit="10" stroke-width="1" stroke="#293449" d="M20 7H14"></path>
<path stroke-miterlimit="10" stroke-width="1" stroke="#293449" d="M10 7H4"></path>
<path stroke-miterlimit="10" stroke-width="1" stroke="#293449" d="M7 10V4"></path>
<path stroke-miterlimit="10" stroke-width="1" stroke="#293449" d="M9.12 19.1199L4.88 14.8799"></path>
<path stroke-miterlimit="10" stroke-width="1" stroke="#293449" d="M4.88 19.1199L9.12 14.8799"></path>
<path stroke-linejoin="round" stroke-miterlimit="10" stroke-width="1" stroke="#293449" d="M19.25 14.75L14.75 19.25"></path>
<path stroke-linejoin="round" stroke-linecap="round" stroke-miterlimit="10" stroke-width="1" stroke="#293449" d="M15.01 14.99L14.99 15.01"></path>
<path stroke-linejoin="round" stroke-linecap="round" stroke-miterlimit="10" stroke-width="1" stroke="#293449" d="M19.01 19L19 19.01"></path>
</svg>
