<svg width="96" height="96" viewBox="0 0 24 24" fill="none" xmlns="http://www.w3.org/2000/svg" data-reactroot="">
<path stroke-linejoin="round" stroke-linecap="round" stroke-miterlimit="10" stroke-width="0" stroke="#000000" fill="#2249B3" d="M19.5 16H4.5C4.22 16 4 15.78 4 15.5V5.5C4 5.22 4.22 5 4.5 5H19.5C19.78 5 20 5.22 20 5.5V15.5C20 15.78 19.78 16 19.5 16Z" transform="translate(2,2)"></path><path stroke-linejoin="round" stroke-linecap="round" stroke-miterlimit="10" stroke-width="1" stroke="#000000" fill="none" d="M19.5 16H4.5C4.22 16 4 15.78 4 15.5V5.5C4 5.22 4.22 5 4.5 5H19.5C19.78 5 20 5.22 20 5.5V15.5C20 15.78 19.78 16 19.5 16Z"></path>
<path stroke-linejoin="round" stroke-linecap="round" stroke-miterlimit="10" stroke-width="0" stroke="#000000" fill="#FF7373" d="M19 19H5C3.34 19 2 17.66 2 16H22C22 17.66 20.66 19 19 19Z" transform="translate(2,2)"></path><path stroke-linejoin="round" stroke-linecap="round" stroke-miterlimit="10" stroke-width="1" stroke="#000000" fill="none" d="M19 19H5C3.34 19 2 17.66 2 16H22C22 17.66 20.66 19 19 19Z"></path>
</svg>
